/* XPM */
static char *result[] = {
/* columns rows colors chars-per-pixel */
"32 32 159 2 ",
"   c #000000",
".  c #080203",
"X  c #090709",
"o  c #1D0C16",
"O  c #0D1116",
"+  c #0F151B",
"@  c #13161C",
"#  c #14181F",
"$  c #181A1E",
"%  c #27100F",
"&  c #230E1B",
"*  c #26101D",
"=  c #29121E",
"-  c #2C1819",
";  c #2B1111",
":  c #351B1B",
">  c #3B1B1D",
",  c #161B21",
"<  c #1A1D22",
"1  c #2C1421",
"2  c #2F1F2F",
"3  c #311621",
"4  c #301E2F",
"5  c #1D2126",
"6  c #1E2328",
"7  c #282725",
"8  c #292826",
"9  c #22262C",
"0  c #252226",
"q  c #3C262C",
"w  c #232C39",
"e  c #242A37",
"r  c #3C2639",
"t  c #332739",
"y  c #2A333E",
"u  c #481F39",
"i  c #431E32",
"p  c #46202A",
"a  c #49222C",
"s  c #4F233C",
"d  c #432D35",
"f  c #5D2B36",
"g  c #683132",
"h  c #2C3540",
"j  c #303743",
"k  c #313843",
"l  c #353D4A",
"z  c #383F4A",
"x  c #3A3C52",
"c  c #503A40",
"v  c #5A3A40",
"b  c #672D4C",
"n  c #6B2F51",
"m  c #6F3255",
"M  c #713254",
"N  c #753458",
"B  c #773F65",
"V  c #3A424D",
"C  c #364053",
"Z  c #404153",
"A  c #51555B",
"S  c #424D64",
"D  c #564B68",
"F  c #5E4F6E",
"G  c #4D5664",
"H  c #46536D",
"J  c #4A566E",
"K  c #58596D",
"L  c #4D5772",
"P  c #475971",
"I  c #4C5A74",
"U  c #525F77",
"Y  c #5A5E74",
"T  c #7D4770",
"R  c #625070",
"E  c #54627D",
"W  c #5D6B7F",
"Q  c #776A79",
"!  c #7C6E7C",
"~  c #8B3D69",
"^  c #873A64",
"/  c #8E4243",
"(  c #944749",
")  c #954A4E",
"_  c #BF5C5D",
"`  c #994567",
"'  c #90436F",
"]  c #964466",
"[  c #944272",
"{  c #9A4474",
"}  c #A94D6E",
"|  c #A45E64",
" . c #B25461",
".. c #AA4D70",
"X. c #B0676F",
"o. c #B66A72",
"O. c #C45C5E",
"+. c #C35C69",
"@. c #CA5F65",
"#. c #CD6267",
"$. c #D16263",
"%. c #D0686D",
"&. c #E76D7A",
"*. c #E86C7A",
"=. c #F37174",
"-. c #576584",
";. c #576987",
":. c #5C6C8B",
">. c #646883",
",. c #657285",
"<. c #687486",
"1. c #657489",
"2. c #697689",
"3. c #6C788D",
"4. c #657493",
"5. c #6B7A92",
"6. c #6D7F9C",
"7. c #717E92",
"8. c #7B7E92",
"9. c #9D5182",
"0. c #AE4D83",
"q. c #B24E87",
"w. c #AA578C",
"e. c #B5528A",
"r. c #BB528C",
"t. c #86618C",
"y. c #927887",
"u. c #867992",
"i. c #CC5E81",
"p. c #E27C84",
"a. c #748297",
"s. c #70819E",
"d. c #7A879A",
"f. c #7585A2",
"g. c #7B8AA5",
"h. c #92918F",
"j. c #918499",
"k. c #838FA7",
"l. c #9C8FA3",
"z. c #8293AD",
"x. c #8893A7",
"c. c #8596B1",
"v. c #879AB5",
"b. c #8B9CB5",
"n. c #8C9DB8",
"m. c #969DB6",
"M. c #A296AC",
"N. c #AB97AB",
"B. c #A398AD",
"V. c #8FA2BD",
"C. c #91A2BC",
"Z. c #9CABBF",
"A. c #B3B6BD",
"S. c #C8808E",
"D. c #CE8896",
"F. c #E6838C",
"G. c #BABFC5",
"H. c #C5CDD7",
"J. c None",
/* pixels */
"J.J.J.J.            J.J.J.J.J.J.J.J.J.J.J.J.J.J.            J.J.",
"J.J.J.J.> > > : 1 * J.J.J.J.J.J.J.J.J.J.J.J.J.J.* 1 > > > : J.J.",
"J.J.  : ( _ @. .] n *                         & n ]  .+.O.( :   ",
"J.J.  : _ &.#.+.i.} f : 0 6 , , # # # , 6 0 : f ..i.+.#.*. .:   ",
"J.J.  1 ] ..f g +.*.#.| ! W J S S S S J W ! | #.*.+.g f } ` 3   ",
"J.J.  1 ^ ~ u p ( $.=.F.N.c.s.4.4.4.4.f.c.N.F.=.$.( p u [ ~ 1   ",
"J.J.  1 ~ q.[ m p g $.F.N.v.z.z.z.z.z.z.v.N.F.O.g a m ' q.~ 1   ",
"J.J.  1 n { e.~ & - | D.M.V.b.b.n.b.b.b.n.B.D.| - & ~ e.{ n *   ",
"J.J.J.J.* s { ~ * 1 Q M.C.b.b.b.b.b.b.b.b.C.M.Q 1 * ~ { s & J.J.",
"J.J.J.J.  * m m 4 z g.Z.d.3.x.v.z.z.v.x.7.d.Z.k.l 8 m M =   J.J.",
"J.J.J.J.J.J.& 2 C 3.H.G.A V 3.z.6.6.z.a.z A G.H.7.x 4 & J.J.J.J.",
"J.J.J.J.J.J.  , J x.A.h.7 5 <.x.u.u.x.<.$ 7 h.A.k.J ,   J.J.J.J.",
"J.J.J.J.J.J.  6 ,.a.A 7 . 5 ,.M.S.S.M.,.5 . 7 A 7.,.5   J.J.J.J.",
"J.J.J.J.J.J.  9 2.a.V $ 5 V a.l.o.o.l.a.V 0 , V a.3.9   J.J.J.J.",
"J.J.J.J.J.J.  9 <.c.a.,.<.a.b.8.Z d 8.c.a.2.,.7.z.2.9   J.J.J.J.",
"J.J.J.J.J.J.  6 <.C.C.b.c.g.a.G % O G a.g.v.b.C.C.<.9   J.J.J.J.",
"J.J.J.J.J.J.  5 <.C.C.v.f.E k # .   # y E s.b.C.C.<.5   J.J.J.J.",
"J.J.J.J.J.J.5 V <.g.7.,.:.J e O $ # $ w J :.,.5.g.2.V 5 J.J.J.J.",
"J.J.J.J.  5 K 3.5.U y y I -.L S S S S J -.I y y E 5.3.K 5   J.J.",
"J.J.J.J.  9 3.n.f.Y d q x L -.:.:.:.:.W J Z q d Y s.n.3.9   J.J.",
"J.J.J.J.  9 3.C.v.j.X.( q e H :.:.:.:.J w q ( X.j.v.C.3.9   J.J.",
"J.J.J.J.  , G 2.1.y.p.O.> # J 4.:.:.4.J # > O.p.y.2.2.G <   J.J.",
"J.J.      X # 6 6 v %.O.> < W g.4.4.f.;.5 > O.%.v 6 6 # X   J.J.",
"J.J.= & X X O # + q ) / ; 6 2.c.s.s.c.2.5 % / ) q + + O X   J.J.",
"  = M m & O l H H c t & . 6 2.n.z.c.b.2.0 . % q C H H l O   J.J.",
"= i N n o O l P ;.L t o @ k 2.z.b.b.c.1.j @ o t L ;.P x #   J.J.",
"~ M i o X   O w P >.T B D I :.6.c.c.6.;.P D T T >.L w @ J.J.J.J.",
"r.{ s o . X o r F t.w.9.R J E 4.g.f.4.E L R 9.w.t.R r & J.J.J.J.",
"r.0.[ b o o b ' 9.w.e.' r w L :.1.4.>.P w r ' e.w.9.[ n =   J.J.",
"e.r.r.~ 1 1 ~ r.r.r.r.^ & + S :.:.;.:.S @ & ^ r.r.r.r.~ 1   J.J.",
"J.J.J.J.J.J.J.J.J.J.J.J.J.J.J.J.J.J.J.J.J.J.J.J.J.J.J.J.J.J.J.J.",
"J.J.J.J.J.J.J.J.J.J.J.J.J.J.J.J.J.J.J.J.J.J.J.J.J.J.J.J.J.J.J.J."
};
