/* XPM */
static char *result[] = {
/* columns rows colors chars-per-pixel */
"32 32 146 2 ",
"   c #000000",
".  c #0C0F15",
"X  c #0E1116",
"o  c #0F1318",
"O  c #12151B",
"+  c #14181E",
"@  c #240E1C",
"#  c #26101C",
"$  c #29111D",
"%  c #2C1819",
"&  c #341B1C",
"*  c #3B1C1E",
"=  c #151921",
"-  c #1B1C22",
";  c #2C1421",
":  c #2E1F2E",
">  c #311621",
",  c #301E2F",
"<  c #1C2026",
"1  c #1E2228",
"2  c #252226",
"3  c #282725",
"4  c #292826",
"5  c #252D39",
"6  c #292F3C",
"7  c #332435",
"8  c #481F39",
"9  c #46202A",
"0  c #49222C",
"q  c #4F233C",
"w  c #5D2B36",
"e  c #50213A",
"r  c #463239",
"t  c #643033",
"y  c #6B3131",
"u  c #2E3541",
"i  c #2F394B",
"p  c #333A46",
"a  c #343D4B",
"s  c #393F4A",
"d  c #353E50",
"f  c #3A3D52",
"g  c #503A40",
"h  c #6A2F51",
"j  c #6E3254",
"k  c #703253",
"l  c #3B444F",
"z  c #51555B",
"x  c #424E65",
"c  c #584D6A",
"v  c #4C5664",
"b  c #4A576E",
"n  c #4D596F",
"m  c #445067",
"M  c #4A5670",
"N  c #4E5B73",
"B  c #525B75",
"V  c #7D446B",
"C  c #635366",
"Z  c #54627B",
"A  c #58657E",
"S  c #5E6B7F",
"D  c #5C6077",
"F  c #776A79",
"G  c #7C6E7C",
"H  c #8B3D67",
"J  c #8C3D69",
"K  c #873C66",
"L  c #903E6A",
"P  c #95474A",
"I  c #BF5B5C",
"U  c #964466",
"Y  c #994567",
"T  c #814A72",
"R  c #964273",
"E  c #9B4474",
"W  c #A94D6E",
"Q  c #A35C63",
"!  c #B25461",
"~  c #AA4D70",
"^  c #AE676F",
"/  c #B66A72",
"(  c #C15C5E",
")  c #CA5F65",
"_  c #C35C69",
"`  c #CD6267",
"'  c #D16263",
"]  c #E76D7A",
"[  c #E86C7A",
"{  c #F37174",
"}  c #FF7B7E",
"|  c #5D6B87",
" . c #5D6C8C",
".. c #556381",
"X. c #616D81",
"o. c #6A6386",
"O. c #657285",
"+. c #687487",
"@. c #65738B",
"#. c #6E798D",
"$. c #69778D",
"%. c #657593",
"&. c #6C7D9A",
"*. c #6E7E93",
"=. c #717E92",
"-. c #7B7E92",
";. c #B24E87",
":. c #B55088",
">. c #BD548E",
",. c #867992",
"<. c #917B93",
"1. c #CC5E81",
"2. c #C05591",
"3. c #DE7B86",
"4. c #738196",
"5. c #72829E",
"6. c #7A879A",
"7. c #7585A2",
"8. c #7B8BA5",
"9. c #7F8EA8",
"0. c #7887A4",
"q. c #7F90AC",
"w. c #92918F",
"e. c #908398",
"r. c #838FA7",
"t. c #9C8FA3",
"y. c #8492A2",
"u. c #8292AD",
"i. c #8C93AC",
"p. c #8597B1",
"a. c #879BB5",
"s. c #8B9CB5",
"d. c #8D9EB8",
"f. c #969DB6",
"g. c #A28CA2",
"h. c #A296AC",
"j. c #AB97AB",
"k. c #A398AD",
"l. c #9CABBF",
"z. c #B3B6BD",
"x. c #C8808E",
"c. c #CE8896",
"v. c #E5828B",
"b. c #BABFC5",
"n. c #C5CDD7",
"m. c None",
/* pixels */
"m.m.m.m.m.m.m.m.m.m.m.m.m.m.m.m.m.m.m.m.m.m.m.m.m.m.m.m.m.m.m.m.",
"m.m.m.m.m.m.m.m.m.m.m.m.m.m.m.m.m.m.m.m.m.m.m.m.m.m.m.m.m.m.m.m.",
"m.m.m.m.m.m.m.m.m.m.m.m.m.m.m.m.m.m.m.m.m.m.m.m.m.m.m.m.m.m.m.m.",
"m.m.m.m.m.m.m.m.m.m.m.m.m.m.m.m.m.m.m.m.m.m.m.m.m.m.m.m.m.m.m.m.",
"m.m.m.m.            m.m.m.m.m.m.m.m.m.m.m.m.m.m.            m.m.",
"m.m.m.m.& * * * ; # m.m.m.m.m.m.m.m.m.m.m.m.m.m.# ; * > * & m.m.",
"m.m.  & P ( ( ! U h #                         @ h U I I ( P &   ",
"m.m.  * ! [ ` _ 1.~ w & 2 1 < + = + + = 1 2 & w ~ 1._ ` ] ! *   ",
"m.m.  > Y ~ w t _ ] ) Q G | b x m m x b | G Q ) [ _ t w ~ Y >   ",
"m.m.  ; H R 8 9 P ' { v.j.q.5.%.%.%.%.5.u.j.v.{ ' P 9 8 R H ;   ",
"m.m.  ; H ;.R k 0 y ` v.j.a.u.9.9.q.9.u.a.j.v.' y 0 k R ;.H ;   ",
"m.m.  # j E :.J @ % Q c.h.d.d.s.d.d.s.d.d.k.c.Q % @ J :.E h #   ",
"m.m.m.m.# q E J $ ; F h.f.d.d.d.s.s.s.s.d.f.h.F - $ J E q # m.m.",
"m.m.m.m.  # k j : l y.l.6.*.y.a.u.u.s.y.=.6.l.y.s , k j #   m.m.",
"m.m.m.m.m.m.# : a #.n.b.z a #.p.&.5.u.4.s z b.n.#.f : # m.m.m.m.",
"m.m.m.m.m.m.  + b 9.z.w.4 - O.i.,.,.i.O.- 4 w.z.r.b =   m.m.m.m.",
"m.m.m.m.m.m.  - X.=.z 3   < O.h.x.x.h.O.1   4 z =.X.<   m.m.m.m.",
"m.m.m.m.m.m.O a =.4.s - < l 4.t./ / t.4.l - - l 4.=.p o m.m.m.m.",
"m.m.m.m.  O d Z 9.u.=.O.+.6.p.-.z r 4.p.4.+.X.=.i.9.A a O   m.m.",
"m.m.m.m.  = x %.8.u.d.d.p.r.4.v X O v 4.r.s.d.d.p.7.%.b 5 O m.m.",
"m.m.m.m.  = x %.%.&.s.s.7...p +     + s D 0.s.p.&.%. ...M d O   ",
"m.m.m.m.  - M %. .| O.X.N a X         O a N X.@.| | %.%.%.x =   ",
"m.m.m.m.  1 X.8.%.M u - - o             X - < u M %.0.0.%.x =   ",
"m.m.m.m.  1 X.9.7.b -                         + b 5.p.u.&.x =   ",
"m.m.m.m.  = N 7.9.| -                         - S p.d.u.&.x =   ",
"m.m.m.m.$ : a Z 7.$.p X                     o p *.d.p.5.Z a +   ",
"m.m.  ; k j : 5 Z %.N d O                 o i Z 0.p.7.B 6 O m.m.",
"m.m.  ; J E e : f M o.c -                 - C <.g.e.D i .   m.m.",
"m.m.  ; H ;.E j : 7 T V ;                 & Q 3.3.^ r X     m.m.",
"m.m.  ; K >.2.K # $ J U ;                 * I } } I &       m.m.",
"m.m.m.m.m.m.m.m.m.m.m.m.m.m.m.m.m.m.m.m.m.m.m.m.m.m.m.m.m.m.m.m.",
"m.m.m.m.m.m.m.m.m.m.m.m.m.m.m.m.m.m.m.m.m.m.m.m.m.m.m.m.m.m.m.m."
};
