/* XPM */
static char *result[] = {
/* columns rows colors chars-per-pixel */
"32 30 143 2 ",
"   c #000000",
".  c #0B0E13",
"X  c #0D1016",
"o  c #0E1318",
"O  c #12161B",
"+  c #15181F",
"@  c #240E1B",
"#  c #25101C",
"$  c #29111D",
"%  c #2C1819",
"&  c #341B1C",
"*  c #3B1C1E",
"=  c #161A21",
"-  c #1B1C22",
";  c #2C1421",
":  c #2E1E2D",
">  c #311621",
",  c #1C2025",
"<  c #1E2228",
"1  c #252226",
"2  c #282725",
"3  c #292826",
"4  c #252D39",
"5  c #292F3C",
"6  c #302030",
"7  c #36283A",
"8  c #481F39",
"9  c #46202A",
"0  c #49222C",
"q  c #4F233C",
"w  c #5D2B36",
"e  c #50213A",
"r  c #463239",
"t  c #643033",
"y  c #6B3131",
"u  c #2E3642",
"i  c #2E394A",
"p  c #343B46",
"a  c #353D4A",
"s  c #353E50",
"d  c #393C51",
"f  c #503A40",
"g  c #6A2F51",
"h  c #6D3253",
"j  c #703253",
"k  c #3B444F",
"l  c #4F5258",
"z  c #51555B",
"x  c #424D65",
"c  c #584D6A",
"v  c #4C5664",
"b  c #49566E",
"n  c #4D596F",
"m  c #445067",
"M  c #4E5A72",
"N  c #505E77",
"B  c #525B75",
"V  c #7D446B",
"C  c #635366",
"Z  c #53617A",
"A  c #58657E",
"S  c #5D6B7F",
"D  c #5C6077",
"F  c #776A79",
"G  c #7C6E7C",
"H  c #8B3D67",
"J  c #8C3D69",
"K  c #873C66",
"L  c #903E6A",
"P  c #95474A",
"I  c #BF5B5C",
"U  c #964466",
"Y  c #994567",
"T  c #814A72",
"R  c #964273",
"E  c #9B4474",
"W  c #A94D6E",
"Q  c #A35C63",
"!  c #B25461",
"~  c #AA4D70",
"^  c #AE676F",
"/  c #B66A72",
"(  c #C15C5E",
")  c #CA5F65",
"_  c #C35C69",
"`  c #CD6267",
"'  c #D16263",
"]  c #E76D7A",
"[  c #E86C7A",
"{  c #F37174",
"}  c #FF7B7E",
"|  c #546280",
" . c #616C80",
".. c #6A6386",
"X. c #657285",
"o. c #687487",
"O. c #65748E",
"+. c #68758B",
"@. c #6E798D",
"#. c #667594",
"$. c #6D7C95",
"%. c #6C7D9A",
"&. c #687795",
"*. c #717D92",
"=. c #7B7E92",
"-. c #B24E87",
";. c #B55088",
":. c #BD548E",
">. c #867992",
",. c #917B93",
"<. c #CC5E81",
"1. c #C05591",
"2. c #DE7B86",
"3. c #738196",
"4. c #72839E",
"5. c #7A879A",
"6. c #7485A3",
"7. c #7989A4",
"8. c #7E8EA9",
"9. c #92918F",
"0. c #908398",
"q. c #838FA6",
"w. c #9C8FA3",
"e. c #8492A2",
"r. c #8293AD",
"t. c #8C93AC",
"y. c #8596B1",
"u. c #879BB5",
"i. c #8B9CB5",
"p. c #8D9EB8",
"a. c #969DB6",
"s. c #A28CA2",
"d. c #A296AC",
"f. c #AB97AB",
"g. c #A398AD",
"h. c #9CABBF",
"j. c #B2B6BD",
"k. c #C8808E",
"l. c #CE8896",
"z. c #E5828B",
"x. c #BABFC5",
"c. c #C5CDD7",
"v. c None",
/* pixels */
"v.v.v.v.v.v.v.v.v.v.v.v.v.v.v.v.v.v.v.v.v.v.v.v.v.v.v.v.v.v.v.v.",
"v.v.v.v.v.v.v.v.v.v.v.v.v.v.v.v.v.v.v.v.v.v.v.v.v.v.v.v.v.v.v.v.",
"v.v.v.v.v.v.v.v.v.v.v.v.v.v.v.v.v.v.v.v.v.v.v.v.v.v.v.v.v.v.v.v.",
"v.v.v.v.v.v.v.v.v.v.v.v.v.v.v.v.v.v.v.v.v.v.v.v.v.v.v.v.v.v.v.v.",
"v.v.v.v.            v.v.v.v.v.v.v.v.v.v.v.v.v.v.            v.v.",
"v.v.v.v.& * * * ; # v.v.v.v.v.v.v.v.v.v.v.v.v.v.# ; * * * * v.v.",
"v.v.  & P ( ( ! U g #                         + g U ! ( I P *   ",
"v.v.  * ! [ ` _ <.~ w & 1 < = + = + + = < 1 & w ~ <._ ` ] ! *   ",
"v.v.  > Y W w t _ [ ` Q G S b x x x x b S G Q ` [ _ t w ~ Y ;   ",
"v.v.  ; J R 8 9 P ' { z.f.y.4.#.#.&.#.4.y.f.z.{ ' P 9 8 R J ;   ",
"v.v.  ; H -.R j 0 y ' z.f.u.r.r.8.8.8.y.u.f.z.` y 0 j R -.H ;   ",
"v.v.  # g E ;.J @ % Q l.g.p.i.i.p.p.i.i.i.g.l.Q % @ J ;.E h #   ",
"v.v.v.v.# q E J @ ; F d.a.p.i.i.p.p.i.p.a.a.d.F + $ L E q # v.v.",
"v.v.v.v.  # h h 1 k e.h.5.$.r.y.r.8.u.e.*.5.h.e.k : h h #   v.v.",
"v.v.v.v.v.v.@ : d @.c.x.z k @.r.3.4.y.@.p z x.c.@.d : @ v.v.v.v.",
"v.v.v.v.v.v.o 4 N q.j.9.3 - X.t.=.>.t.X.- 3 9.j.q.B 4 o v.v.v.v.",
"v.v.v.v.  o s N 4.*.l 3   , o.d.2.k.a.X.,   3 l *.4.Z s O   v.v.",
"v.v.v.v.O 4 b %.y.3.a - , k 3.w.^ / w.3.k - - k *.y.%.x =   v.v.",
"v.v.  = s b | #.r.t.@. .o.5.y.=.f f =.y.3.o.X.*.t.r.%.x +   v.v.",
"v.v.  = x O.#.%.7.r.u.h.y.8.3.v + O v 3.8.r.h.i.r.7.%.n =   v.v.",
"v.v.  = x #.7.7.&.%.y.i.6.| p +     = a A 7.i.y.4.%.8.X.1   v.v.",
"v.v.  = x %.r.r.4.O.+. .M a o         o i M S +.O.%.q.| <   v.v.",
"v.v.  = x %.r.i.r.+.p - - o             o = , a +.8.6.n =   v.v.",
"v.v.  O k Z 4.y.p.$.u .                     . u +.4.Z d 6 $ v.v.",
"v.v.v.v.O 5 N 6.y.7.Z i o                 o i M O.Z 4 6 h j $   ",
"v.v.v.v.  . p D 0.s.,.C -                 - c ..M d : e E J ;   ",
"v.v.v.v.    . r ^ 2.2.Q &                 ; V T 7 : h E -.J ;   ",
"v.v.v.v.      * I } } I *                 ; L H $ @ H :.:.K ;   ",
"v.v.v.v.v.v.v.v.v.v.v.v.v.v.v.v.v.v.v.v.v.v.v.v.v.v.v.v.v.v.v.v.",
"v.v.v.v.v.v.v.v.v.v.v.v.v.v.v.v.v.v.v.v.v.v.v.v.v.v.v.v.v.v.v.v."
};
