/* XPM */
static char *result[] = {
/* columns rows colors chars-per-pixel */
"32 32 146 2 ",
"   c #000000",
".  c #0E0505",
"X  c #0A0E12",
"o  c #1F0C16",
"O  c #0D1015",
"+  c #0F141A",
"@  c #12171C",
"#  c #14181F",
"$  c #240E1C",
"%  c #290F1D",
"&  c #2D1515",
"*  c #26101D",
"=  c #29111E",
"-  c #2C1819",
";  c #351B1B",
":  c #3B1C1E",
">  c #351716",
",  c #171C22",
"<  c #1A1D23",
"1  c #2D1421",
"2  c #311621",
"3  c #301F2F",
"4  c #1C2025",
"5  c #1E2228",
"6  c #282725",
"7  c #292826",
"8  c #22262B",
"9  c #252226",
"0  c #282E3B",
"q  c #262E3B",
"w  c #302030",
"e  c #382938",
"r  c #2B333F",
"t  c #481F39",
"y  c #46202A",
"u  c #4C222D",
"i  c #4F2F36",
"p  c #5D2B36",
"a  c #51243D",
"s  c #4B383F",
"d  c #513239",
"f  c #643033",
"g  c #6B3131",
"h  c #333945",
"j  c #343C4B",
"k  c #3A3D53",
"l  c #2C384A",
"z  c #503A40",
"x  c #682D4D",
"c  c #692E52",
"v  c #6D3153",
"b  c #723253",
"n  c #3A424D",
"m  c #37404A",
"M  c #374154",
"N  c #51555B",
"B  c #424D64",
"V  c #4A566E",
"C  c #4B586F",
"Z  c #4C5664",
"A  c #595D6E",
"S  c #4E5B71",
"D  c #465670",
"F  c #525F78",
"G  c #755B6E",
"H  c #54617A",
"J  c #58657E",
"K  c #5E6B7F",
"L  c #776A79",
"P  c #7C6E7C",
"I  c #8C3D69",
"U  c #893C67",
"Y  c #8F4446",
"T  c #904446",
"R  c #95474A",
"E  c #99474C",
"W  c #BF5C5D",
"Q  c #BB5759",
"!  c #964466",
"~  c #994567",
"^  c #964273",
"/  c #9C4575",
"(  c #A94D6E",
")  c #A45E64",
"_  c #B25461",
"`  c #AA4D70",
"'  c #A9636C",
"]  c #B66A72",
"[  c #C25C5E",
"{  c #C35D60",
"}  c #CA5F65",
"|  c #C35C69",
" . c #CD6267",
".. c #CB6469",
"X. c #D16263",
"o. c #D7727B",
"O. c #E76D7A",
"+. c #E86C7A",
"@. c #F77578",
"#. c #5C6A84",
"$. c #616D81",
"%. c #657286",
"&. c #687487",
"*. c #6A7689",
"=. c #6D798E",
"-. c #71768B",
";. c #7F7289",
":. c #667694",
">. c #6C7C9A",
",. c #687996",
"<. c #707E92",
"1. c #7B7E92",
"2. c #B24E87",
"3. c #B65088",
"4. c #80748C",
"5. c #867992",
"6. c #CC5E81",
"7. c #C25692",
"8. c #FF7E82",
"9. c #738196",
"0. c #71829E",
"q. c #7A879A",
"w. c #7485A2",
"e. c #7A89A4",
"r. c #7F8EA8",
"t. c #92918F",
"y. c #838FA7",
"u. c #9C8FA3",
"i. c #8292AD",
"p. c #8893A7",
"a. c #8697B2",
"s. c #879BB5",
"d. c #8A9BB5",
"f. c #8E9FB8",
"g. c #969DB6",
"h. c #A296AC",
"j. c #AB97AB",
"k. c #A398AD",
"l. c #9CABBF",
"z. c #B3B6BD",
"x. c #C8808E",
"c. c #CE8896",
"v. c #E6838C",
"b. c #BABFC5",
"n. c #C5CDD7",
"m. c None",
/* pixels */
"m.m.m.m.m.m.m.m.m.m.m.m.m.m.m.m.m.m.m.m.m.m.m.m.m.m.m.m.m.m.m.m.",
"m.m.m.m.m.m.m.m.m.m.m.m.m.m.m.m.m.m.m.m.m.m.m.m.m.m.m.m.m.m.m.m.",
"m.m.m.m.m.m.m.m.m.m.m.m.m.m.m.m.m.m.m.m.m.m.m.m.m.m.m.m.m.m.m.m.",
"m.m.m.m.m.m.m.m.m.m.m.m.m.m.m.m.m.m.m.m.m.m.m.m.m.m.m.m.m.m.m.m.",
"m.m.            m.m.m.m.m.m.m.m.m.m.m.m.m.m.            m.m.m.m.",
"m.m.; : : : 1 * m.m.m.m.m.m.m.m.m.m.m.m.m.m.* 1 : : : ; m.m.m.m.",
"  ; R W [ _ ! c o                         * c ! _ [ _ R ;   m.m.",
"  : _ O. .| 6.` p ; 9 5 , # # # , , 5 9 2 p ` 6.|  .O.Q :   m.m.",
"  2 ~ ( p f _ 8.| ) $.#.V B B B B V K P ) } O.| f p ( ~ ;   m.m.",
"  1 I ^ u y E  .@.8.j.r.0.:.,.:.,.0.i.j.v.@.X.R y a ^ I 1   m.m.",
"  1 I 2.^ b u g  .v.j.s.i.i.i.r.r.a.d.j.v. .g u v ^ 2.U 1   m.m.",
"  * c / 3.U * > ) c.k.f.d.d.f.f.s.s.d.h.c.) & $ U 3./ c *   m.m.",
"m.m.$ a / I % # L h.l.d.d.d.f.d.f.s.f.l.h.L # = I / a * m.m.m.m.",
"m.m.  $ x b 3 j y.l.q.=.y.a.i.r.d.y.<.9.l.p.n 3 v x $   m.m.m.m.",
"m.m.    o w k =.n.b.N m <.i.0.0.p.9.h N b.n.=.k w $     m.m.m.m.",
"m.m.# O   , V i.z.t.7 < %.p.5.5.p.&.# 7 t.z.y.V @   X , m.m.m.m.",
"  # k j X < $.9.N 6 . 4 &.k.x.x.k.&.4 . 7 N <.$.3 X j M ,   m.m.",
"  < S J 0 h <.9.m , 4 n 9.u.] ] u.9.M 4 < n 9.<.h q H S ,   m.m.",
"  5 $.0.H H e.i.<.%.&.9.s.1.s z 1.a.9.&.$.<.p.e.F H 0.$.5   m.m.",
"  8 *.a.0.>.e.a.f.f.a.r.9.Z # # Z 9.r.s.f.d.a.e.,.0.s.&.8   m.m.",
"  8 *.f.a.e.,.>.a.d.w.J j # .   # h J w.s.a.>.>.e.a.g.&.8   m.m.",
"  5 K a.f.i.:.#.%.K S j O         O j S $.%.#.:.r.f.s.#.5   m.m.",
"  , C w.s.i.:.D r , , O             @ , < h D :.a.a.w.C ,   m.m.",
"  # j C K *.;.G i & .                   X 0 F :.*.#.S j @   m.m.",
"m.m.@ # , s ' o...T &                 X l H w.*.m 4 # @ m.m.m.m.",
"m.m.= = * u E [ { Y &             . & d G 4.-.A e * = = m.m.m.m.",
"  = c I I b u : : > .             - Y ..o.' s e v I I v =   m.m.",
"  1 I 7.7.! =                     : { 8.8.Q > $ U 7.7.I 1   m.m.",
"m.m.m.m.m.m.m.m.m.m.m.m.m.m.m.m.m.m.m.m.m.m.m.m.m.m.m.m.m.m.m.m.",
"m.m.m.m.m.m.m.m.m.m.m.m.m.m.m.m.m.m.m.m.m.m.m.m.m.m.m.m.m.m.m.m.",
"m.m.m.m.m.m.m.m.m.m.m.m.m.m.m.m.m.m.m.m.m.m.m.m.m.m.m.m.m.m.m.m.",
"m.m.m.m.m.m.m.m.m.m.m.m.m.m.m.m.m.m.m.m.m.m.m.m.m.m.m.m.m.m.m.m."
};
