/* XPM */
static char *result[] = {
/* columns rows colors chars-per-pixel */
"32 32 160 2 ",
"   c #000000",
".  c #050708",
"X  c #0C0509",
"o  c #0E0605",
"O  c #0B0F15",
"+  c #1E0A14",
"@  c #0D1015",
"#  c #0E1319",
"$  c #11151B",
"%  c #13181E",
"&  c #200D16",
"*  c #240F1A",
"=  c #290E1C",
"-  c #2D1515",
";  c #25101C",
":  c #29111E",
">  c #30141F",
",  c #361A1B",
"<  c #3C1C1E",
"1  c #161B21",
"2  c #191D23",
"3  c #2C1321",
"4  c #201F25",
"5  c #2E1F2E",
"6  c #271521",
"7  c #301620",
"8  c #301F2F",
"9  c #3D182D",
"0  c #1C2026",
"q  c #1F2329",
"w  c #2A2927",
"e  c #21252B",
"r  c #222B36",
"t  c #212B38",
"y  c #282E3B",
"u  c #312131",
"i  c #352738",
"p  c #392B3D",
"a  c #2B323E",
"s  c #412838",
"d  c #4A2C36",
"f  c #572735",
"g  c #582937",
"h  c #51223B",
"j  c #6A3332",
"k  c #2F394B",
"l  c #2E3742",
"z  c #313944",
"x  c #323C4E",
"c  c #3C3F53",
"v  c #443243",
"b  c #533A41",
"n  c #672C4C",
"m  c #6C2E51",
"M  c #702F53",
"N  c #6D3154",
"B  c #713155",
"V  c #3C434E",
"C  c #44474E",
"Z  c #484C52",
"A  c #424D65",
"S  c #445067",
"D  c #44536C",
"F  c #49566E",
"G  c #4B586E",
"H  c #4E5765",
"J  c #485770",
"K  c #4E5A71",
"L  c #525E76",
"P  c #535F78",
"I  c #595F7A",
"U  c #7C466D",
"Y  c #6F586E",
"T  c #665878",
"R  c #55637C",
"E  c #5E6A7E",
"W  c #58657D",
"Q  c #6F657E",
"!  c #606C7F",
"~  c #873B66",
"^  c #893A65",
"/  c #8D3E6A",
"(  c #8E4345",
")  c #934649",
"_  c #BE5B5D",
"`  c #80486C",
"'  c #9A4668",
"]  c #9D4574",
"[  c #964876",
"{  c #944773",
"}  c #875179",
"|  c #8C557B",
" . c #B45461",
".. c #BA5866",
"X. c #BF5B6B",
"o. c #B46A71",
"O. c #C05C5E",
"+. c #D26466",
"@. c #C6677A",
"#. c #F57577",
"$. c #546481",
"%. c #5C6B85",
"&. c #5D6C8C",
"*. c #616D81",
"=. c #7E6E8A",
"-. c #657186",
";. c #687487",
":. c #61708E",
">. c #6A7689",
",. c #6C798C",
"<. c #796B91",
"1. c #647493",
"2. c #6E7E92",
"3. c #6C7C99",
"4. c #6E7491",
"5. c #727D93",
"6. c #7B7F92",
"7. c #B94F89",
"8. c #A55A8D",
"9. c #AC5B88",
"0. c #BF5684",
"q. c #B75089",
"w. c #BC528C",
"e. c #B15F93",
"r. c #82728C",
"t. c #857E9E",
"y. c #B6638A",
"u. c #AE6294",
"i. c #B46094",
"p. c #A67AA4",
"a. c #C05785",
"s. c #D05C8A",
"d. c #C47E8C",
"f. c #F67385",
"g. c #6F809D",
"h. c #738195",
"j. c #71819E",
"k. c #7585A2",
"l. c #778AA4",
"z. c #7A8AA4",
"x. c #7E8FA9",
"c. c #93918F",
"v. c #8E83A3",
"b. c #938AA4",
"n. c #9A8EA1",
"m. c #8293AD",
"M. c #8A96AE",
"N. c #8596B1",
"B. c #8698B3",
"V. c #8C9CB5",
"C. c #8E9EB8",
"Z. c #9893B3",
"A. c #939EB5",
"S. c #8FA1BA",
"D. c #90A1BB",
"F. c #ADB0B7",
"G. c #A5B2C7",
"H. c #B8BBC1",
"J. c #CFD6E2",
"K. c None",
/* pixels */
"K.K.K.K.K.K.K.K.K.K.K.K.K.K.K.K.K.K.K.K.K.K.K.K.K.K.K.K.K.K.K.K.",
"K.K.K.K.K.K.K.K.K.K.K.K.K.K.K.K.K.K.K.K.K.K.K.K.K.K.K.K.K.K.K.K.",
"K.K.K.K.K.K.K.K.K.K.K.K.K.K.K.K.K.K.K.K.K.K.K.K.K.K.K.K.K.K.K.K.",
"K.K.K.K.K.K.K.K.K.K.K.K.K.K.K.K.K.K.K.K.K.K.K.K.K.K.K.K.K.K.K.K.",
"K.K.K.K.K.K.K.K.K.K.K.K.K.K.K.K.K.K.K.K.K.K.K.K.K.K.K.K.K.K.K.K.",
"K.K.K.K.K.K.K.K.K.K.K.K.K.K.K.K.K.K.K.K.K.K.K.K.K.K.K.K.K.K.K.K.",
"K.K.K.K.K.K.K.K.K.K.K.K.K.K.K.K.K.K.K.K.K.K.K.K.K.K.K.K.K.K.K.K.",
"K.K.K.K.K.K.K.K.K.K.K.K.K.K.K.K.K.K.K.K.K.K.K.K.K.K.K.K.K.K.K.K.",
"K.K.        K.K.K.K.K.K.K.K.            K.K.K.K.K.K.K.K.K.K.K.K.",
"K.K.; 3 3 3 K.K.K.K.K.K.K.K.; 7 < < < , K.K.K.K.K.K.K.K.K.K.K.K.",
"  ; N / / B ;             * m '  ._ _ ) ,   K.K.K.K.K.K.K.K.K.K.",
"  : / q.] N u 1 % 1 1 1 2 v [ 0.X.+.#._ <   K.K.K.K.K.K.K.K.K.K.",
"  3 / ] h 5 c S A A A F E =.8.] f j +._ <   K.K.K.K.K.K.K.K.K.K.",
"  3 B N 5 t J &.&.1.1.j.B.b.| m 9 g X. .<   K.K.K.K.K.K.K.K.K.K.",
"K.K.* 5 c F $.&.&.1.k.N.C.5.v 9 M ] a.' 7               K.K.K.K.",
"K.K.# t F :.1.%.J E A.G.C.*.a 5 m / / N u 1 0 e e q 2 % K.K.K.K.",
"  # x D $.1.l.-.a Z H.J.M.%.F c 8 = = 8 c K *.;.;.*.G x $   K.K.",
"3 s Y 6.4.g.B.-.2 w c.F.5.&.1.R z 1 % t J 3.N.C.C.N.k.I y $ K.K.",
"~ ' @.d.b.N.V.;.2 X w C K 1.k.x.2.E D D R 1.m.C.C.V.N.3.I x #   ",
"8.9...o.n.S.S.h.V 0 2 l P j.m.C.D.M.j.1.1.3.m.V.V.C.V.m.3.F i : ",
"<.T d d 6.D.D.M.h.;.-.,.l.m.V.C.C.V.m.m.x.m.M.V.C.C.S.x.1.T U ~ ",
"S k @ % H ,.>.5.x.N.C.D.C.C.A.M.m.m.M.V.V.V.C.M.m.x.x.k.3.<.8.w.",
"1 # . . 2 e e z W k.V.D.D.D.C.N.3.3.m.V.V.V.V.m.3.1.1.3.x.t.u.a.",
"              # z K *.;.>.>.>.*.%.1.m.V.V.V.m.l.:.&.:.3.N.v.| / ",
"K.K.          . # 2 e e e e e l J 1.m.C.D.N.3.1.&.1.k.N.V.5.v = ",
"K.K.  X ; ; X                 1 J 3.x.z.5.! G A A R z.A.Z.Q 4   ",
"K.K.  ; N B &                 2 *.x.k.R z 0 1 % # z h.Z.p.` 3   ",
"K.K.  & N B 3             o - b r.t.I z O     X + s =.b.e.^ :   ",
"K.K.  X & 3 K.K.K.K.K.K.  - ( X.y.} p O       & n { 8.e.w.~ 3   ",
"K.K.        K.K.K.K.K.K.  < O.f.s.^ :         3 / w.w.7.w.^ 3   ",
"K.K.K.K.K.K.K.K.K.K.K.K.K.K.K.K.K.K.K.K.K.K.K.K.K.K.K.K.K.K.K.K.",
"K.K.K.K.K.K.K.K.K.K.K.K.K.K.K.K.K.K.K.K.K.K.K.K.K.K.K.K.K.K.K.K."
};
