/* XPM */
static char *result[] = {
/* columns rows colors chars-per-pixel */
"32 32 160 2 ",
"   c #000000",
".  c #050708",
"X  c #0C0509",
"o  c #0E0605",
"O  c #0B0F15",
"+  c #1E0A14",
"@  c #0D1015",
"#  c #0E1319",
"$  c #11151B",
"%  c #13181E",
"&  c #200D16",
"*  c #240F1A",
"=  c #290E1C",
"-  c #2D1515",
";  c #25101C",
":  c #29111E",
">  c #30141F",
",  c #361A1B",
"<  c #3C1C1E",
"1  c #161B21",
"2  c #191D23",
"3  c #2C1321",
"4  c #201F25",
"5  c #2E1F2E",
"6  c #271521",
"7  c #301620",
"8  c #301F2F",
"9  c #3D182D",
"0  c #1C2026",
"q  c #1F2329",
"w  c #2A2927",
"e  c #21252B",
"r  c #222B36",
"t  c #212B38",
"y  c #282E3B",
"u  c #312131",
"i  c #352738",
"p  c #392B3D",
"a  c #2B323E",
"s  c #412838",
"d  c #4A2C36",
"f  c #572735",
"g  c #582937",
"h  c #51223B",
"j  c #6A3332",
"k  c #2F394B",
"l  c #2E3742",
"z  c #313944",
"x  c #323C4E",
"c  c #3C3F53",
"v  c #443243",
"b  c #533A41",
"n  c #672C4C",
"m  c #6C2E51",
"M  c #702F53",
"N  c #6D3154",
"B  c #713155",
"V  c #3C434E",
"C  c #44474E",
"Z  c #484C52",
"A  c #424D65",
"S  c #445067",
"D  c #44536C",
"F  c #49566E",
"G  c #4B586E",
"H  c #4E5765",
"J  c #485770",
"K  c #4E5A71",
"L  c #525E76",
"P  c #535F78",
"I  c #595F7A",
"U  c #7C466D",
"Y  c #6F586E",
"T  c #665878",
"R  c #55637C",
"E  c #5E6A7E",
"W  c #58657D",
"Q  c #6F657E",
"!  c #606C7F",
"~  c #873B66",
"^  c #893A65",
"/  c #8D3E6A",
"(  c #8E4345",
")  c #934649",
"_  c #BE5B5D",
"`  c #80486C",
"'  c #9A4668",
"]  c #9D4574",
"[  c #964876",
"{  c #944773",
"}  c #875179",
"|  c #8C557B",
" . c #B45461",
".. c #BA5866",
"X. c #BF5B6B",
"o. c #B46A71",
"O. c #C05C5E",
"+. c #D26466",
"@. c #C6677A",
"#. c #F57577",
"$. c #546481",
"%. c #5C6B85",
"&. c #5D6C8C",
"*. c #616D81",
"=. c #7E6E8A",
"-. c #657186",
";. c #687487",
":. c #61708E",
">. c #6A7689",
",. c #6C798C",
"<. c #796B91",
"1. c #647493",
"2. c #6E7E92",
"3. c #6C7C99",
"4. c #6E7491",
"5. c #727D93",
"6. c #7B7F92",
"7. c #B94F89",
"8. c #A55A8D",
"9. c #AC5B88",
"0. c #BF5684",
"q. c #B75089",
"w. c #BC528C",
"e. c #B15F93",
"r. c #82728C",
"t. c #857E9E",
"y. c #B6638A",
"u. c #AE6294",
"i. c #B46094",
"p. c #A67AA4",
"a. c #C05785",
"s. c #D05C8A",
"d. c #C47E8C",
"f. c #F67385",
"g. c #6F809D",
"h. c #738195",
"j. c #71819E",
"k. c #7585A2",
"l. c #778AA4",
"z. c #7A8AA4",
"x. c #7E8FA9",
"c. c #93918F",
"v. c #8E83A3",
"b. c #938AA4",
"n. c #9A8EA1",
"m. c #8293AD",
"M. c #8A96AE",
"N. c #8596B1",
"B. c #8698B3",
"V. c #8C9CB5",
"C. c #8E9EB8",
"Z. c #9893B3",
"A. c #939EB5",
"S. c #8FA1BA",
"D. c #90A1BB",
"F. c #ADB0B7",
"G. c #A5B2C7",
"H. c #B8BBC1",
"J. c #CFD6E2",
"K. c None",
/* pixels */
"K.K.K.K.K.K.K.K.K.K.K.K.K.K.K.K.K.K.K.K.K.K.K.K.K.K.K.K.K.K.K.K.",
"K.K.K.K.K.K.K.K.K.K.K.K.K.K.K.K.K.K.K.K.K.K.K.K.K.K.K.K.K.K.K.K.",
"K.K.K.K.K.K.K.K.K.K.K.K.K.K.K.K.K.K.K.K.K.K.K.K.K.K.K.K.K.K.K.K.",
"K.K.K.K.K.K.K.K.K.K.K.K.K.K.K.K.K.K.K.K.K.K.K.K.K.K.K.K.K.K.K.K.",
"K.K.K.K.K.K.K.K.K.K.K.K.K.K.K.K.K.K.K.K.K.K.K.K.K.K.K.K.K.K.K.K.",
"K.K.K.K.K.K.K.K.K.K.K.K.K.K.K.K.K.K.K.K.K.K.K.K.K.K.K.K.K.K.K.K.",
"K.K.K.K.K.K.K.K.K.K.K.K.K.K.K.K.K.K.K.K.K.K.K.K.K.K.K.K.K.K.K.K.",
"K.K.K.K.K.K.K.K.K.K.K.K.K.K.K.K.K.K.K.K.K.K.K.K.K.K.K.K.K.K.K.K.",
"K.K.K.K.K.K.K.K.K.K.K.K.            K.K.K.K.K.K.K.K.        K.K.",
"K.K.K.K.K.K.K.K.K.K.K.K., < < < 7 ; K.K.K.K.K.K.K.K.3 3 3 ; K.K.",
"K.K.K.K.K.K.K.K.K.K.  , ) _ O. .' m =             ; B / / m 6   ",
"K.K.K.K.K.K.K.K.K.K.  < _ #.+.X.0.[ v 0 1 % 1 1 % u N ] q./ 3   ",
"K.K.K.K.K.K.K.K.K.K.  < O.+.j f ] 9.=.%.G A A S S c 5 h ] / 3   ",
"K.K.K.K.K.K.K.K.K.K.  <  .X.g 9 m | b.B.g.1.&.&.&.J r 5 N B ;   ",
"K.K.K.K.              7 ' 0.] M 9 z 5.C.m.l.1.&.&.$.J c u = K.K.",
"K.K.K.K.$ 2 q e e 0 1 u N / / N 8 a -.V.G.A.%.J %.1.:.F r # K.K.",
"K.K.  $ x G E >.;.%.K c 5 = = 5 c G %.M.J.H.Z a -.z.1.$.F V #   ",
"K.K.$ y P k.N.A.A.m.3.J r % 2 z I 1.&.5.F.c.w 2 ;.B.j.4.=.Y p 6 ",
"  $ x P j.m.V.V.C.m.3.R S G E ,.z.k.1.L C w X 0 ;.V.N.b.d.@.' ^ ",
"= i F 3.m.A.V.V.V.m.3.1.1.g.N.A.A.N.3.L a 2 0 V h.D.S.n.o...9.8.",
"^ U *.1.m.V.V.V.V.B.m.m.m.m.V.A.C.B.N.k.,.;.;.5.m.D.D.6.d d Y <.",
"w.8.<.3.k.m.m.m.N.V.V.V.V.B.m.m.V.A.C.C.D.C.B.z.5.>.,.H % # k S ",
"w.u.t.v.3.1.1.3.m.V.V.V.V.m.3.3.N.C.C.D.D.V.k.W z e e 2 . . # 1 ",
"~ | v.N.3.:.&.1.k.m.V.V.V.m.1.%.-.;.>.>.>.*.K x #               ",
"= v 5.A.m.k.1.:.1.3.B.A.S.x.1.G l e e e e e 2 # .           K.K.",
"  q Q Z.A.k.L A A G ! 5.z.x.g.G $                 X ; ; X   K.K.",
"  6 ` p.Z.2.l $ $ 1 2 z W j.x.%.2                 ; N m ;   K.K.",
"  6 ^ e.p.=.v + X     # k I t.r.b - o             3 B N *   K.K.",
"  : / w.e.8.{ n &       # p } y.X.) -   K.K.K.K.K.K.6 * X   K.K.",
"  6 ~ q.7.q.w./ 3         ; ^ s.f.O.<   K.K.K.K.K.K.        K.K.",
"K.K.K.K.K.K.K.K.K.K.K.K.K.K.K.K.K.K.K.K.K.K.K.K.K.K.K.K.K.K.K.K.",
"K.K.K.K.K.K.K.K.K.K.K.K.K.K.K.K.K.K.K.K.K.K.K.K.K.K.K.K.K.K.K.K."
};
