/* XPM */
static char *result[] = {
/* columns rows colors chars-per-pixel */
"32 32 162 2 ",
"   c #000000",
".  c #090407",
"X  c #0A0508",
"o  c #070D12",
"O  c #1D0C15",
"+  c #160912",
"@  c #0C1015",
"#  c #13161C",
"$  c #19171F",
"%  c #14191E",
"&  c #230E19",
"*  c #261212",
"=  c #25121E",
"-  c #2B121E",
";  c #34161A",
":  c #371A1C",
">  c #3A1C1C",
",  c #151920",
"<  c #1A1D23",
"1  c #2B1320",
"2  c #2B1D2C",
"3  c #1C2227",
"4  c #1F2329",
"5  c #21252B",
"6  c #39252A",
"7  c #2F2031",
"8  c #222D39",
"9  c #282F3B",
"0  c #222B37",
"q  c #3A293A",
"w  c #28333F",
"e  c #441E32",
"r  c #481F39",
"t  c #4A1D35",
"y  c #4F2136",
"u  c #422F32",
"i  c #592736",
"p  c #5C2934",
"a  c #50223B",
"s  c #453034",
"d  c #53383C",
"f  c #2D3741",
"g  c #2F3844",
"h  c #2D3749",
"j  c #363D51",
"k  c #3B3E52",
"l  c #642C4B",
"z  c #692E4F",
"x  c #672F51",
"c  c #6B2F53",
"v  c #6B3053",
"b  c #753357",
"n  c #753F65",
"m  c #3B424C",
"M  c #424E65",
"N  c #534A66",
"B  c #5D4D6C",
"V  c #435067",
"C  c #4D586F",
"Z  c #495669",
"A  c #535D6B",
"S  c #5C5F6C",
"D  c #495670",
"F  c #4C5971",
"G  c #515E77",
"H  c #7B456B",
"J  c #7E486F",
"K  c #53627A",
"L  c #5F6B7F",
"P  c #6D657E",
"I  c #853B66",
"U  c #8A3C66",
"Y  c #8B3D69",
"T  c #923F6E",
"R  c #894143",
"E  c #944749",
"W  c #944B4D",
"Q  c #AE525F",
"!  c #B0535F",
"~  c #BC5A5B",
"^  c #8E406D",
"/  c #944364",
"(  c #994467",
")  c #93406E",
"_  c #934170",
"`  c #9B4372",
"'  c #9A4E7F",
"]  c #A4496C",
"[  c #B35360",
"{  c #B95667",
"}  c #B7527F",
"|  c #CA6065",
" . c #C56365",
".. c #DF6977",
"X. c #D5637A",
"o. c #D8767C",
"O. c #E26B77",
"+. c #EA6E7E",
"@. c #ED707E",
"#. c #F4737C",
"$. c #FB777C",
"%. c #FD797D",
"&. c #5C6C8C",
"*. c #536380",
"=. c #6E6286",
"-. c #616D81",
";. c #686F86",
":. c #75678E",
">. c #76688F",
",. c #657589",
"<. c #697689",
"1. c #6D7B8F",
"2. c #746E91",
"3. c #647392",
"4. c #687795",
"5. c #6D7D92",
"6. c #6C7C9A",
"7. c #727F93",
"8. c #915D8A",
"9. c #AB4B82",
"0. c #B44E86",
"q. c #A25689",
"w. c #A65A8E",
"e. c #B6508C",
"r. c #BB528C",
"t. c #A95B90",
"y. c #8B7583",
"u. c #BB6A93",
"i. c #C55986",
"p. c #C85A87",
"a. c #C3578F",
"s. c #C95A8C",
"d. c #D66385",
"f. c #DA6486",
"g. c #DF6882",
"h. c #DE668A",
"j. c #D5788C",
"k. c #E16985",
"l. c #EC6F80",
"z. c #F47481",
"x. c #F97684",
"c. c #FF7C80",
"v. c #6F819D",
"b. c #738095",
"n. c #71819C",
"m. c #7484A1",
"M. c #7A86A3",
"N. c #7789A1",
"B. c #7B8BA5",
"V. c #7E8EA9",
"C. c #9C8EAD",
"Z. c #8393AD",
"A. c #8696B1",
"S. c #8798B3",
"D. c #8C9CB5",
"F. c #8E9FB8",
"G. c #939BB3",
"H. c #A295AA",
"J. c #8EA1BA",
"K. c #90A1BB",
"L. c #CB8793",
"P. c None",
/* pixels */
"P.P.P.P.P.P.P.P.P.P.P.P.P.P.P.P.P.P.P.P.P.P.P.P.P.P.P.P.P.P.P.P.",
"P.P.P.P.P.P.P.P.P.P.P.P.P.P.P.P.P.P.P.P.P.P.P.P.P.P.P.P.P.P.P.P.",
"P.P.P.P.P.P.P.P.P.P.P.P.P.P.P.P.P.P.P.P.P.P.P.P.P.P.P.P.P.P.P.P.",
"P.P.P.P.P.P.P.P.P.P.P.P.P.P.P.P.P.P.P.P.P.P.P.P.P.P.P.P.P.P.P.P.",
"P.P.P.P.P.P.P.P.P.P.P.P.P.P.P.P.P.P.P.P.P.P.P.P.P.P.P.P.P.P.P.P.",
"P.P.P.P.P.P.P.P.P.P.P.P.P.P.P.P.P.P.P.P.P.P.P.P.P.P.P.P.P.P.P.P.",
"P.P.P.P.            P.P.P.P.P.P.P.P.P.P.P.P.P.P.            P.P.",
"P.P.P.P.: > > : 1 = P.P.P.P.P.P.P.P.P.P.P.P.P.P.- 1 : > > > P.P.",
"P.P.  : E ~ ~ Q / c 1                         1 c / Q ~ ~ E :   ",
"P.P.  : Q x.c.z.h.( 1   @ < 4 4 < % % < 4 % . ; ( h.z.%.x.Q :   ",
"P.P.  1 / f.z.c.x.[ ; o h G -.-.C M M F -.Z % ; [ x.c.z.f./ 1   ",
"P.P.  1 I s.k.O.| W s g K 6.V.M.3.&.3.n.S.7.g 6 E | O.k.s.I 1   ",
"P.P.  1 U a.s.] p u S 7.V.B.6.3.&.3.M.A.F.B.K k 6 p ] s.a.U 1   ",
"P.P.  - v U Y v 2 f ,.S.D.A.6.3.3.6.Z.F.F.Z.n.G 8 2 v U Y v -   ",
"P.P.P.P.- 1 - 7 k F &.n.Z.S.Z.V.Z.Z.A.F.D.S.Z.v.G k 7 1 1 - P.P.",
"P.P.P.P.      # M &.3.6.Z.D.D.D.D.D.D.D.D.D.F.A.m.F %       P.P.",
"P.P.P.P.P.P.  # M 4.n.Z.S.D.D.F.D.D.D.D.D.D.D.D.Z.P <   P.P.P.P.",
"P.P.P.P.P.P.# w G n.A.F.D.S.F.D.Z.B.B.Z.S.D.D.D.J.b.m 3 P.P.P.P.",
"P.P.P.P.  # j K b.Z.D.D.D.F.F.Z.v.3.3.v.Z.F.D.D.D.Z.b.A <   P.P.",
"P.P.P.P.  , V 4.Z.F.G.D.A.n.1.;.=.=.=.>.M.Z.S.D.S.J.J.b.m 3 P.P.",
"P.P.P.P.  , M 4.Z.F.F.Z.m.K f q J q.q.8.>.v.Z.D.D.D.F.Z.b.A 3   ",
"P.P.P.P.  , M 4.M.Z.Z.n.G j 2 t ) r.r.' B K N.D.D.D.D.F.K.<.5   ",
"P.P.P.P.  , M &.3.4.4.K 8 2 x T } r.r.^ q f 1.J.F.D.S.F.K.<.5   ",
"P.P.P.P.  , M &.&.*.D k 2 y ] p.e.e.r.I * < P C.H.H.G.F.K.<.5   ",
"P.P.P.P.  , M &.&.V 0 2 c ] X.k.i.e.r.I - = H u.j.L.H.J.K.<.5   ",
"P.P.P.P.  $ N 2.:.N # - / d.#.+.p.9._ l O - / d.#.o.y.<.5.A 4   ",
"P.P.      = H t.w.n $ ; ! #.$.+.p.^ r +   : Q z.$. .d < 4 4 P.P.",
"P.P.  . & e b ` 0.U - : ~ %.%.+.d.] p * . > ~ $.#.{ i + .   P.P.",
"P.P.  = z b e y ` ^ = > ~ %.$.#.@...| R * > ~ z.d.} ` l O   P.P.",
"P.P.  1 T I O O z v = > ~ %.$.$.$.$.c.~ > : ~ +.p.e.r.Y 1   P.P.",
"P.P.P.P.P.P.X . O - P.P.P.P.P.P.P.P.P.P.P.P.P.P.P.P.P.P.P.P.P.P.",
"P.P.P.P.P.P.        P.P.P.P.P.P.P.P.P.P.P.P.P.P.P.P.P.P.P.P.P.P."
};
