/* XPM */
static char *result[] = {
/* columns rows colors chars-per-pixel */
"32 32 204 2 ",
"   c #000000",
".  c #0C0502",
"X  c #090903",
"o  c #06150C",
"O  c #09150C",
"+  c #0B1B0E",
"@  c #07190B",
"#  c #14190E",
"$  c #0B1E10",
"%  c #121810",
"&  c #2A000A",
"*  c #2A0E03",
"=  c #2B1406",
"-  c #2B1D09",
";  c #271405",
":  c #3A1505",
">  c #331807",
",  c #3A1907",
"<  c #3B1D08",
"1  c #341B08",
"2  c #3D0412",
"3  c #261415",
"4  c #3E1A1D",
"5  c #0D220E",
"6  c #13260F",
"7  c #14280F",
"8  c #0F2212",
"9  c #102311",
"0  c #152C12",
"q  c #182F12",
"w  c #17211B",
"e  c #193113",
"r  c #1C3D1F",
"t  c #163519",
"y  c #3B260B",
"u  c #3C2A0C",
"i  c #34230A",
"p  c #3A3312",
"a  c #312F32",
"s  c #223928",
"d  c #402C0D",
"f  c #572A0C",
"g  c #493615",
"h  c #63310E",
"j  c #6E340F",
"k  c #6A3A11",
"l  c #6F182A",
"z  c #493120",
"x  c #693636",
"c  c #1E431E",
"v  c #21451E",
"b  c #244C1E",
"n  c #3D401B",
"m  c #29521F",
"M  c #1D4F29",
"N  c #254D20",
"B  c #224D29",
"V  c #2A5521",
"C  c #235425",
"Z  c #3B762D",
"A  c #36702B",
"S  c #2C6536",
"D  c #2B6939",
"F  c #316C39",
"G  c #316F36",
"H  c #357237",
"J  c #34723A",
"K  c #3A7D3B",
"L  c #397839",
"P  c #356C27",
"I  c #474319",
"U  c #4A4818",
"Y  c #6D4715",
"T  c #704013",
"R  c #504C34",
"E  c #4C603E",
"W  c #506831",
"Q  c #507632",
"!  c #627335",
"~  c #636B31",
"^  c #367E44",
"/  c #475B43",
"(  c #537B5A",
")  c #706B49",
"_  c #8A3E11",
"`  c #970B2C",
"'  c #BF0031",
"]  c #BF153D",
"[  c #B02F3A",
"{  c #D5033B",
"}  c #8D4313",
"|  c #944916",
" . c #9A4915",
".. c #914514",
"X. c #BC5719",
"o. c #BA5919",
"O. c #8F631E",
"+. c #94651E",
"@. c #BC621C",
"#. c #985E21",
"$. c #996A20",
"%. c #BE7924",
"&. c #A97425",
"*. c #C15A19",
"=. c #C65B1A",
"-. c #C4651E",
";. c #CB651D",
":. c #D2641D",
">. c #D4691E",
",. c #D16F21",
"<. c #C17A24",
"1. c #CE7528",
"2. c #D37020",
"3. c #C66D21",
"4. c #EE7120",
"5. c #FB7622",
"6. c #FD7823",
"7. c #DA1A48",
"8. c #FF0046",
"9. c #F6144B",
"0. c #D72247",
"q. c #8E4E4C",
"w. c #C05B5F",
"e. c #C94456",
"r. c #E24354",
"t. c #C25E61",
"y. c #D35B64",
"u. c #F85B6E",
"i. c #D46869",
"p. c #CE6468",
"a. c #F37579",
"s. c #3C803E",
"d. c #448B39",
"f. c #4A963B",
"g. c #4C9A3C",
"h. c #47943E",
"j. c #5A9E3C",
"k. c #749A38",
"l. c #4FA03F",
"z. c #51A33E",
"x. c #3D8748",
"c. c #3D8A49",
"v. c #3B8545",
"b. c #3B914B",
"n. c #408D49",
"m. c #408A44",
"M. c #5F8C42",
"N. c #44954A",
"B. c #47994A",
"V. c #499B4B",
"C. c #469746",
"Z. c #5A9D45",
"A. c #57835F",
"S. c #679746",
"D. c #7A924E",
"F. c #4CA34A",
"G. c #4CA748",
"H. c #51A640",
"J. c #53AB43",
"K. c #51AA4C",
"L. c #50A648",
"P. c #56B24C",
"I. c #5CBB4C",
"U. c #57B64A",
"Y. c #79B647",
"T. c #6BB44C",
"R. c #6BAB6D",
"E. c #6DAF70",
"W. c #5EC14D",
"Q. c #5AC84F",
"!. c #61C44D",
"~. c #64CA4E",
"^. c #6ECD4E",
"/. c #72CA4E",
"(. c #BE8427",
"). c #AC8C32",
"_. c #B2AB3F",
"`. c #C48728",
"'. c #C68B2A",
"]. c #D38829",
"[. c #D5932C",
"{. c #D09A33",
"}. c #FB8326",
"|. c #F88728",
" X c #FF942C",
".X c #F3982D",
"XX c #EB8E2A",
"oX c #DDA838",
"OX c #D4A735",
"+X c #D7B53A",
"@X c #F9A02F",
"#X c #FEA431",
"$X c #F6AC34",
"%X c #FFAD33",
"&X c #E4B338",
"*X c #FFB235",
"=X c #F7B136",
"-X c #8D9848",
";X c #A7BD42",
":X c #BCBB40",
">X c #83C449",
",X c #A6B3A8",
"<X c #B4D0B7",
"1X c None",
/* pixels */
"1X1X1X1X1X1X1X1X      + S V.I.~.~.~.~.I.N.x.c.x.c.V.I.g.e   1X1X",
"1X1X1X1X1X1X1X1X+ 9 0 v F V.I.I.z.l.J.P.F.B.n.x.x.N.P.d.0   1X1X",
"1X1X1X1X1X1X  + B J d.f.m.B.I.H.m v L F.U.K.N.x.x.n.V.H 9       ",
"1X1X1X1X1X1X+ r L K.!.I.F.K.I.g.c s A.R.Z.g.V.N.n.n.x.F r O     ",
"1X1X1X1X  + B K H.!.~.!.I.I.!.J.L A.<X,X/ b g.P.N.x.x.v.J B O   ",
"1X1X1X1X  9 J K.I.~.~.~.~.~.~.I.G.R.<X,Xa @ P g.V.V.N.V.V.v.r + ",
"1X1X1X1X  0 d.!.!.~.~.~.~.~.!.!.I.I.E.( w   + m f.I.I.I.!.K.K S ",
"1X1X1X1X  q f.~.~.!.I.I.!.!.~.~.~.W.K.K b q 7 V z.~.W.U.g.f.n.n.",
"1X1X1X1X  q f.~.~.I.F.F.I.~.~.!.~.~.I.U.z.g.g.z.W.Q.U.s.C c J b.",
"1X1X1X1X  q f.~.~.I.N.N.P.T.Y.Y.j.g.g.g.g.g.g.Z.D.-XD./ + # R ) ",
"1X1X1X1X  q f.^.~.U.B.c.N.S.).&.I 0 e e e e e z [ 0.i.q.3 & ` 0.",
"1X1X1X1X  0 d.!.~.I.B.^ J ~ 2.*.,             & ` 7.u.i.x l { 8.",
"1X1X1X1X  9 H K.I.I.B.F t g -.*.,             . & l y.a.i.e.9.8.",
"1X1X1X1X  $ B K P.!.K.H + , X.>.T - X     . = =   3 q.w.t.e.] ' ",
"1X1X1X1X1X1X+ v H.^.!.s.5 , X.}.].O.-     = ....;   3 4 4 4 4 2 ",
"1X1X1X1X1X1X  0 Z H.!.H.C p | >.#X[.Y i 1 j :.:.j - 6 @         ",
"            1X1X7 V z.~.z.Q p k ].$X[.%.@.=.4.4.:.#.W M @   1X1X",
"d u < i u y 1X1X  7 Z z.Q.l.C U '.*X*X#X X}.6.5.6.1.! B 8   1X1X",
"'.<.@.@.<.$.y   1X1X0 V z.Q.G.k.OX%X*X*X#X X}.5.6.@.g $ 1X1X1X1X",
"`.].|. X%X`.u   1X1X  0 Z z.W.>X:X&X=X%X*X@X|.5.6.o.,   1X1X1X1X",
"y Y ].%X*X'.u   1X1X1X1X6 V H.^./.;X+X%X*X#X}.5.6.o.,   1X1X1X1X",
"  i +.'.`.O.-   1X1X1X1X  0 d.I.!.>X+X%X%X#X}.6.6.o.<   1X1X1X1X",
"1X1Xy u u - X             9 H F.I.>X+X%X%X#X}.6.6.o.<   1X1X1X1X",
"1X1X    o o X   + 8 8 O   $ S B.Y.;X&X%X#XXX;.;.4.o.<   1X1X1X1X",
"1X1X  + M B o O B F S B o O D Z._.&X=X#X X-.h h ,.*.<   1X1X1X1X",
"1X1X  9 L v.r t J b.N.L n g ! -XoX*X*X#X X;.h f  .| ,   1X1X1X1X",
"1X1X  0 d.K.K F v.c.c.M.).'.{.oX$X%X*X%X#X.X,. .f > 1X1X1X1X1X1X",
"1X1X  e d.I.K.V.V.b.J ! {.$X*X*X*X%X%X.X].<.-. .>   1X1X1X1X1X1X",
"1X1X  9 L K.I.I.I.h.c g 3. X%X*X*X%X X,.k y y , 1X1X1X1X1X1X1X1X",
"1X1X  $ B J d.Z.g.A 5 = } @.%.(.(.%.@.} =       1X1X1X1X1X1X1X1X",
"1X1X1X1X$ 9 9 t e 6 X . = < y u u y < = .               1X1X1X1X",
"1X1X1X1X                                                1X1X1X1X"
};
