/* XPM */
static char *result[] = {
/* columns rows colors chars-per-pixel */
"32 32 4 1 ",
"  c #2F2F2E",
". c #7C4E2E",
"X c #B97F56",
"o c None",
/* pixels */
"ooooooooooooooooooo XXoooooooooo",
"ooooooooooooooooooo XXoooooooooo",
"ooooooooooooooooooo XXoooooooooo",
"ooooooooooooooooooo XXoooooooooo",
"ooooooooooooooooooo ..oooooooooo",
"ooooooooooooooooooo XXoooooooooo",
"ooooooooooooooooooo XXoooooooooo",
"ooooooooooooooooooo ..oooooooooo",
"ooooooooooooooooooo XXoooooooooo",
"ooooooooooooooooooo ..oooooooooo",
"ooooooooooooooooooo ..oooooooooo",
"ooooooooooooooooooo ..oooooooooo",
"ooooooooooooooooooo ..oooooooooo",
"ooooooooooooooooooo ..oooooooooo",
"ooooooooooooooooooo ..oooooooooo",
"ooooooooooooooooooo ..oooooooooo",
"ooooooooooooooooooo ..oooooooooo",
"ooooooooooooooooooo ..oooooooooo",
"ooooooooooooooooooo ..oooooooooo",
"ooooooooooooooooooo ..oooooooooo",
"ooooooooooooooooooo ..oooooooooo",
"ooooooooooooooooooo ..oooooooooo",
"ooooooooooooooooooo ..oooooooooo",
"ooooooooooooooooooo ..oooooooooo",
"ooooooooooooooooooo ..oooooooooo",
"ooooooooooooooooooo ..oooooooooo",
"ooooooooooooooooooo ..oooooooooo",
"ooooooooooooooooooo ..oooooooooo",
"ooooooooooooooooooo ..oooooooooo",
"ooooooooooooooooooo ..oooooooooo",
"ooooooooooooooooooo ..oooooooooo",
"ooooooooooooooooooo ..oooooooooo"
};
