/* XPM */
static char *result[] = {
/* columns rows colors chars-per-pixel */
"32 32 7 1 ",
"  c #2F2F2E",
". c #684228",
"X c #7C4E2E",
"o c #8B5936",
"O c #99643E",
"+ c #B97F56",
"@ c None",
/* pixels */
"@@@@@@@@@@@@@@@@@@@@@@@@@@@@@@@@",
"                  @@@@@@@@@@@@@@",
"++++++++++++++++++   @@@@@@@@@@@",
"+++++++++++++++++++++  @@@@@@@@@",
"OOOOOOOOOOOOOOOOOO+++++@@@@@@@@@",
"OOOOOOOOOOOOOOOOOOOOO++@@@@@@@@@",
"OOXoooXXooXoooXoXXOOOOO@@@@@@@@@",
"OOXoooXooXXoooXoXXXoOOO@@@@@@@@@",
"OOXooXXooXXooXXooXXooOO@@@@@@@@@",
"OOXooXXooXXoXoXoooXooOO@@@@@@@@@",
"OOXoXXXooXXoXoXoooXoXOO@@@@@@@@@",
"OOXXXXXXXXXXXXXXXXXXXOO@@@@@@@@@",
"OO+++++++++++++++++++OO@@@@@@@@@",
"OOOOOOOOOOOOOOOOOOOOOOO@@@@@@@@@",
"OOooooXoXXXoooXoooXoXOO@@@@@@@@@",
"OO++ooXooXXoooXoXoXoXOO@@@@@@@@@",
"OOOOooXoooXoooXoXoXooOO@@@@@@@@@",
"O..OXoXoooXooXXoooXoXOO@@@@@@@@@",
"O..OXoXoooXooXXoXoXoXOO@@@@@@@@@",
"OO.OXXXXXXXXXXXXXXXXXOO@@@@@@@@@",
"OOOO+++++++++++++++++OO@@@@@@@@@",
"OOOOOOOOOOOOOOOOOOOOOOO@@@@@@@@@",
"OOXXoXXoooXooXXoooXoXOO@@@@@@@@@",
"OOoXoXXoXoXooXXooXXoXOO@@@@@@@@@",
"OOXoooXoXoXoooXoXoXoXOO@@@@@@@@@",
"OOXoooXoXoXoXoXoXoXooOO@@@@@@@@@",
"OOXXXXXXXXXXXXXXXXXXXOO@@@@@@@@@",
"OO+++++++++++++++++++OO@@@@@@@@@",
"OOOOOOOOOOOOOOOOOOOOOOO@@@@@@@@@",
"                       @@@@@@@@@",
"@@@@@@@@@@@@@@@@@@@@@@@@@@@@@@@@",
"@@@@@@@@@@@@@@@@@@@@@@@@@@@@@@@@"
};
