/* XPM */
static char *result[] = {
/* columns rows colors chars-per-pixel */
"32 32 136 2 ",
"   c #8F2013",
".  c #8B2D17",
"X  c #912313",
"o  c #9B2511",
"O  c #A5260E",
"+  c #AB2F0E",
"@  c #AB3E0E",
"#  c #B23F0F",
"$  c #A02D10",
"%  c #A13E12",
"&  c #A83C11",
"*  c #B23F10",
"=  c #974718",
"-  c #974819",
";  c #984E19",
":  c #AC420F",
">  c #B5450E",
",  c #B9440D",
"<  c #BB4A0D",
"1  c #A14112",
"2  c #AB4210",
"3  c #BE6315",
"4  c #C24D0E",
"5  c #C7590E",
"6  c #C95D0E",
"7  c #C9620E",
"8  c #DB6F0E",
"9  c #D7770E",
"0  c #DC710E",
"q  c #C06314",
"w  c #CC6311",
"e  c #C06B16",
"r  c #CB6C14",
"t  c #CD7315",
"y  c #CB751C",
"u  c #CC781F",
"i  c #E37E0E",
"p  c #C97322",
"a  c #D8861C",
"s  c #D88C1F",
"d  c #ED860D",
"f  c #ED8B0D",
"g  c #F08C0E",
"h  c #EC920E",
"j  c #EC9A0D",
"k  c #F3990E",
"l  c #FB9C0E",
"z  c #EE9312",
"x  c #E1971C",
"c  c #E1981D",
"v  c #EE9C1E",
"b  c #F19B15",
"n  c #F2A60D",
"m  c #FFA40E",
"M  c #F2A80E",
"N  c #FFAC0D",
"B  c #FEB40D",
"V  c #FFB90D",
"C  c #EDA613",
"Z  c #EEA41B",
"A  c #FFA710",
"S  c #FFAE14",
"D  c #E1B41F",
"F  c #FFB414",
"G  c #FFBC14",
"H  c #F2B419",
"J  c #FFB418",
"K  c #FFBE1B",
"L  c #D78B20",
"P  c #D89021",
"I  c #D8942A",
"U  c #E1A722",
"Y  c #E0A825",
"T  c #EFAE20",
"R  c #F0AF20",
"E  c #EEB522",
"W  c #EFBF27",
"Q  c #EEBD28",
"!  c #F0B422",
"~  c #F3BF2E",
"^  c #FFC10F",
"/  c #FFC314",
"(  c #FFCC16",
")  c #FFC21D",
"_  c #FFCC1A",
"`  c #FFD21D",
"'  c #FFDF1D",
"]  c #FFE01C",
"[  c #FEC324",
"{  c #FFCD24",
"}  c #F4C22F",
"|  c #FFC429",
" . c #F0CA29",
".. c #EED22D",
"X. c #F0D226",
"o. c #FFD324",
"O. c #FFD925",
"+. c #F0D42F",
"@. c #FFD628",
"#. c #FFDC2B",
"$. c #EEC733",
"%. c #EEC03E",
"&. c #F0C832",
"*. c #F3D136",
"=. c #FEDD32",
"-. c #F4D438",
";. c #FFDF38",
":. c #FFEE26",
">. c #FFE22C",
",. c #FFEE28",
"<. c #FFF52E",
"1. c #FFE434",
"2. c #FFEC34",
"3. c #FFE33A",
"4. c #FFEE3B",
"5. c #FFF632",
"6. c #FFF03F",
"7. c #FFFD3C",
"8. c #E3B842",
"9. c #EECF46",
"0. c #EFD344",
"q. c #F3D947",
"w. c #F3DD52",
"e. c #FFEB46",
"r. c #FCE449",
"t. c #FEEC4B",
"y. c #FFF341",
"u. c #FFFE42",
"i. c #FFF44C",
"p. c #FFF949",
"a. c #FFED51",
"s. c #FFF654",
"d. c #FFFC54",
"f. c #FFFE5A",
"g. c #FFFF63",
"h. c None",
/* pixels */
"h.h.h.h.h.h.h.h.h.h.h.h.h.h.h.h.h.h.h.h.h.h.h.h.h.h.h.h.h.h.h.h.",
"h.h.h.h.h.h.h.h.h.h.h.h.h.h.h.h.h.h.h.h.h.h.h.h.h.h.h.h.h.h.h.h.",
"h.h.h.h.h.h.h.h.h.h.h.h.h.h.h.h.h.h.h.h.< * + $ h.h.h.h.h.h.h.h.",
"h.h.h.h.h.h.h.h.h.h.h.h.h.h.h.h.h.h.h.h.6 5 4 , h.h.h.h.h.h.h.h.",
"h.h.h.h.h.h.h.h.h.h.h.h.h.h.h.h.< > > 6 d f d 0 , O h.h.h.h.h.h.",
"h.h.h.h.h.h.h.h.h.h.h.h.h.h.h.h.6 7 w 9 j N N f 6 , h.h.h.h.h.h.",
"h.h.h.h.h.h.h.h.h.h.h.h.< > > 6 i h j M F B N l g 0 , O h.h.h.h.",
"h.h.h.h.h.h.h.h.h.h.h.h.6 7 7 9 k B B V V B m m A g 6 , h.h.h.h.",
"h.h.h.h.h.h.h.h.< > > 6 i h j M B B N m m m m m A l f 0 , O h.h.",
"h.h.h.h.h.h.h.h.6 7 7 9 k N B G / ) G J J S N m l A J b 7 , h.h.",
"h.h.h.h.< > > 6 d h j M B B N F o.#.#.#.#.{ G N m F { | b 0 , O ",
"h.h.h.h.6 7 7 9 h B / ` ( / F [ 1.6.4.2.2.1.@.[ A J #.#./ d < O ",
"h.h.> 7 i f j n B / @.>.>.#.#.;.i.s.6.2.2.4.i.3.) / #.>._ h < O ",
"h.h.> w v [ { _ _ _ @.#.1.2.2.4.s.i.4.,.2.6.s.y.@.` >.>._ h < O ",
"h.h., y %.a.i.t.1.o.K K #.2.2.4.4.4.2.2.2.2.e.4.1.>.1.>.( j < + ",
"h.h., u 0.f.g.f.p.3.| [ >.2.>.#.#.#.1.2.2.1.>.>.1.2.2.>.( j < O ",
"h.h.> t ..u.f.g.g.s.a.t.4.>._ / J ) #.2.4.#.` _ >.4.2.#._ j < O ",
"h.h.< y ..u.d.s.a.a.s.p.y.>.` / N J #.5.,.>.` _ O.>.2.>._ h < O ",
"h.h.< u 0.d.p.1.| | 3.e.2.1.,.' / / #.2.<.<.>.@._ ` >.>.K d < O ",
"h.h.> p 8.q.=.o.F F { #.1.5.5.,.` o.1.y.7.7.2.#./ / o.[ j 8 > o ",
"h.h.h.h.y s H / B B F K #.2.2.,.>.1.i.f.f.p.3.{ F S F b w * . h.",
"h.h.h.h.: 7 C ( ( / B J =.e.6.6.2.6.i.s.s.r.} Z z d d 8 * X h.h.",
"h.h.h.h.: r E >.:.' ^ ) e.f.f.s.6.1.1.3.3.} a w 7 6 4 > . h.h.h.",
"h.h.h.- 3 P *.y.7.5.#.#.t.f.d.t.*. .E Z T c 3 & : & $ X h.h.h.h.",
"h.h.1 e Y -.t.f.f.d.s.i.y.e.3.} L r r r r q = h.h.h.h.h.h.h.h.h.",
"h.h.: t  .u.f.g.f.s.w.9.$. .! x 3 : 2 2 2 1 h.h.h.h.h.h.h.h.h.h.",
"h.h.2 t X.7.d.f.p.-.I y r t r 3 = h.h.h.h.h.h.h.h.h.h.h.h.h.h.h.",
"h.h.1 e D *.0.0.&.U 3 : 2 2 2 % h.h.h.h.h.h.h.h.h.h.h.h.h.h.h.h.",
"h.h.h.; 3 t u u y q - h.h.h.h.h.h.h.h.h.h.h.h.h.h.h.h.h.h.h.h.h.",
"h.h.h.h.1 2 2 2 : % h.h.h.h.h.h.h.h.h.h.h.h.h.h.h.h.h.h.h.h.h.h.",
"h.h.h.h.h.h.h.h.h.h.h.h.h.h.h.h.h.h.h.h.h.h.h.h.h.h.h.h.h.h.h.h.",
"h.h.h.h.h.h.h.h.h.h.h.h.h.h.h.h.h.h.h.h.h.h.h.h.h.h.h.h.h.h.h.h."
};
