/* XPM */
static char *_c136d8b32374fdcf85459a4defb0bc9j8mLDlL9oXZXkafs[] = {
/* columns rows colors chars-per-pixel */
"32 32 3 1 ",
"  c #4D733E",
". c #6E924D",
"X c #87B055",
/* pixels */
"................................",
"................................",
"..............................X.",
"..............................XX",
"...................X..........XX",
"...................X...........X",
"...................X.X......... ",
"...................X.X..........",
".....................X..........",
"................................",
"................................",
"................................",
"................................",
"................................",
"................................",
"................................",
"................................",
"................................",
"................................",
"................................",
".... .........................X.",
"... . ........................XX",
".... ..............X..........XX",
"...................X...........X",
"...................X.X......... ",
".........X.........X.X..........",
"........XX...........X..........",
".....X..XX......................",
".....XX X.......................",
"..... XX ....X..................",
"......  ....X.X.................",
".............X.................."
};
