/* XPM */
static char *cee0ea204c1c42e2e1b2ba9b89d7259d43RDjwoM06k9MOAA[] = {
/* columns rows colors chars-per-pixel */
"32 32 3 1 ",
"  c #494949",
". c #5A5A59",
"X c #696967",
/* pixels */
" .XXXXXXXXXXXXXXXXXX...XX..X....",
" X..............................",
" X..............................",
" X..............................",
" X..............................",
" X..............................",
" X......... ....................",
" X....................   .......",
" X....................   .......",
" X..............................",
" X..............................",
" X..............................",
" X..............................",
" X..............................",
" X..............................",
" X..............................",
" X....... ......................",
" X..............................",
" X..............................",
" X..............................",
" X..............................",
" X..............................",
" X..............................",
" X................  ............",
" X................  ............",
" X..............................",
" X..............................",
" X..............................",
" X..............................",
" X..............................",
" X..............................",
"                                "
};
